<svg clip-rule="evenodd" fill-rule="evenodd" stroke-linejoin="round" stroke-miterlimit="2" viewBox="0 0 1702 847" xmlns="http://www.w3.org/2000/svg" xmlns:xlink="http://www.w3.org/1999/xlink"><clipPath id="a"><path clip-rule="evenodd" d="m1822 121.949c0-18.185-14.76-32.949-32.95-32.949h-1636.101c-18.185 0-32.949 14.764-32.949 32.949v781.102c0 18.185 14.764 32.949 32.949 32.949h1636.101c18.19 0 32.95-14.764 32.95-32.949z"/></clipPath><path d="m0 0h1702v847h-1702z" fill="none"/><g clip-path="url(#a)" transform="translate(-120 -89)"><path d="m1099 107.167c0-10.027-8.49-18.167-18.95-18.167h-941.098c-10.46 0-18.952 8.14-18.952 18.167v430.666c0 10.027 8.492 18.167 18.952 18.167h941.098c10.46 0 18.95-8.14 18.95-18.167z" fill="#1e1e2e" transform="matrix(1.73851 0 0 1.8137 -88.621 -72.4197)"/><path d="m120 89h124v108h-124z" fill="#11111b" transform="matrix(3.66129 0 0 7.84259 -319.355 -608.991)"/><path d="m574 89h1196v43.5h-1196z" fill="#181825" transform="matrix(1.04348 0 0 1.27586 -24.9565 -24.5517)"/><path d="m684 109c0-5.304-.346-10.391-.963-14.142-.616-3.751-1.453-5.858-2.325-5.858-8.771 0-32.653 0-41.424 0-.872 0-1.709 2.107-2.325 5.858-.617 3.751-.963 8.838-.963 14.142v35.5h48z" fill="#1e1e2e" transform="matrix(6.08333 0 0 1 -3234 9)"/><g fill="#a6e3a1"><path d="m448 149.022c0-9.395-8.449-17.022-18.855-17.022h-165.29c-10.406 0-18.855 7.627-18.855 17.022v8.956c0 9.395 8.449 17.022 18.855 17.022h165.29c10.406 0 18.855-7.627 18.855-17.022z" transform="matrix(.881773 0 0 .976744 984.087 533.07)"/><path d="m448 149.022c0-9.395-8.544-17.022-19.068-17.022h-164.864c-10.524 0-19.068 7.627-19.068 17.022v8.956c0 9.395 8.544 17.022 19.068 17.022h164.864c10.524 0 19.068-7.627 19.068-17.022z" transform="matrix(.871921 0 0 .976744 33.3793 178.07)"/><path d="m448 149.022c0-9.395-3.809-17.022-8.501-17.022h-185.998c-4.692 0-8.501 7.627-8.501 17.022v8.956c0 9.395 3.809 17.022 8.501 17.022h185.998c4.692 0 8.501-7.627 8.501-17.022z" transform="matrix(1.95567 0 0 .976744 646.862 255.07)"/><path d="m448 149.022c0-9.395-8.402-17.022-18.75-17.022h-165.5c-10.348 0-18.75 7.627-18.75 17.022v8.956c0 9.395 8.402 17.022 18.75 17.022h165.5c10.348 0 18.75-7.627 18.75-17.022z" transform="matrix(.8867 0 0 .976744 982.759 532.07)"/></g><path d="m448 149.022c0-9.395-7.543-17.022-16.833-17.022h-169.334c-9.29 0-16.833 7.627-16.833 17.022v8.956c0 9.395 7.543 17.022 16.833 17.022h169.334c9.29 0 16.833-7.627 16.833-17.022z" fill="#f5c2e7" transform="matrix(.987685 0 0 .976744 5.01724 3.56977)"/><path d="m448 149.022c0-9.395-33.607-17.022-75.001-17.022h-52.998c-41.394 0-75.001 7.627-75.001 17.022v8.956c0 9.395 33.607 17.022 75.001 17.022h52.998c41.394 0 75.001-7.627 75.001-17.022z" fill="#f5c2e7" transform="matrix(.221675 0 0 .976744 569.19 463.07)"/><path d="m448 149.022c0-9.395-4.975-17.022-11.102-17.022h-180.796c-6.127 0-11.102 7.627-11.102 17.022v8.956c0 9.395 4.975 17.022 11.102 17.022h180.796c6.127 0 11.102-7.627 11.102-17.022z" fill="#6c7086" transform="matrix(1.49754 0 0 .976744 256.603 47.5698)"/><path d="m448 149.022c0-9.395-3.707-17.022-8.272-17.022h-186.456c-4.565 0-8.272 7.627-8.272 17.022v8.956c0 9.395 3.707 17.022 8.272 17.022h186.456c4.565 0 8.272-7.627 8.272-17.022z" fill="#6c7086" transform="matrix(2.00985 0 0 .976744 131.086 394.07)"/><path d="m448 149.022c0-9.395-8.044-17.022-17.952-17.022h-167.096c-9.908 0-17.952 7.627-17.952 17.022v8.956c0 9.395 8.044 17.022 17.952 17.022h167.096c9.908 0 17.952-7.627 17.952-17.022z" fill="#f2cdcd" transform="matrix(.926108 0 0 .976744 837.603 463.07)"/><path d="m448 149.022c0-9.395-21.004-17.022-46.875-17.022h-109.25c-25.871 0-46.875 7.627-46.875 17.022v8.956c0 9.395 21.004 17.022 46.875 17.022h109.25c25.871 0 46.875-7.627 46.875-17.022z" fill="#f2cdcd" transform="matrix(.35468 0 0 .976744 617.603 533.07)"/><path d="m448 149.022c0-9.395-7.487-17.022-16.708-17.022h-169.584c-9.221 0-16.708 7.627-16.708 17.022v8.956c0 9.395 7.487 17.022 16.708 17.022h169.584c9.221 0 16.708-7.627 16.708-17.022z" fill="#f5c2e7" transform="matrix(.995074 0 0 .976744 561.707 601.07)"/><path d="m448 149.022c0-9.395-20.164-17.022-45-17.022h-113c-24.836 0-45 7.627-45 17.022v8.956c0 9.395 20.164 17.022 45 17.022h113c24.836 0 45-7.627 45-17.022z" fill="#f5c2e7" transform="matrix(.369458 0 0 .976744 532.983 739.07)"/><path d="m448 149.022c0-9.395-10.802-17.022-24.107-17.022h-154.786c-13.305 0-24.107 7.627-24.107 17.022v8.956c0 9.395 10.802 17.022 24.107 17.022h154.786c13.305 0 24.107-7.627 24.107-17.022z" fill="#fab387" transform="matrix(.689655 0 0 .976744 865.534 601.07)"/><path d="m448 145.779c0-7.605-36.007-13.779-80.358-13.779h-42.284c-44.351 0-80.358 6.174-80.358 13.779v15.442c0 7.605 36.007 13.779 80.358 13.779h42.284c44.351 0 80.358-6.174 80.358-13.779z" fill="#94e2d5" transform="matrix(.167488 0 0 .976744 1110.17 533.07)"/><path d="m448 149.022c0-9.395-33.607-17.022-75.001-17.022h-52.998c-41.394 0-75.001 7.627-75.001 17.022v8.956c0 9.395 33.607 17.022 75.001 17.022h52.998c41.394 0 75.001-7.627 75.001-17.022z" fill="#94e2d5" transform="matrix(.221675 0 0 .976744 995.69 255.07)"/><path d="m448 149.022c0-9.395-20.716-17.022-46.233-17.022h-110.534c-25.517 0-46.233 7.627-46.233 17.022v8.956c0 9.395 20.716 17.022 46.233 17.022h110.534c25.517 0 46.233-7.627 46.233-17.022z" fill="#f38ba8" transform="matrix(.359606 0 0 .976744 615.397 671.07)"/><path d="m448 149.022c0-9.395-29.083-17.022-64.904-17.022h-73.192c-35.821 0-64.904 7.627-64.904 17.022v8.956c0 9.395 29.083 17.022 64.904 17.022h73.192c35.821 0 64.904-7.627 64.904-17.022z" fill="#f38ba8" transform="matrix(.256158 0 0 .976744 560.241 255.07)"/><path d="m448 149.022c0-9.395-29.083-17.022-64.904-17.022h-73.192c-35.821 0-64.904 7.627-64.904 17.022v8.956c0 9.395 29.083 17.022 64.904 17.022h73.192c35.821 0 64.904-7.627 64.904-17.022z" fill="#f38ba8" transform="matrix(.256158 0 0 .976744 560.241 186.07)"/><path d="m448 149.022c0-9.395-21.004-17.022-46.875-17.022h-109.25c-25.871 0-46.875 7.627-46.875 17.022v8.956c0 9.395 21.004 17.022 46.875 17.022h109.25c25.871 0 46.875-7.627 46.875-17.022z" fill="#f38ba8" transform="matrix(.35468 0 0 .976744 1315.22 533.07)"/><path d="m448 149.022c0-9.395-8.742-17.022-19.509-17.022h-163.982c-10.767 0-19.509 7.627-19.509 17.022v8.956c0 9.395 8.742 17.022 19.509 17.022h163.982c10.767 0 19.509-7.627 19.509-17.022z" fill="#f9e2af" transform="matrix(.852217 0 0 .976744 -16.7931 410.07)"/><path d="m448 149.022c0-9.395-21.004-17.022-46.875-17.022h-109.25c-25.871 0-46.875 7.627-46.875 17.022v8.956c0 9.395 21.004 17.022 46.875 17.022h109.25c25.871 0 46.875-7.627 46.875-17.022z" fill="#f9e2af" transform="matrix(.35468 0 0 .976744 873.103 186.07)"/><path d="m448 149.022c0-9.395-4.668-17.022-10.417-17.022h-182.166c-5.749 0-10.417 7.627-10.417 17.022v8.956c0 9.395 4.668 17.022 10.417 17.022h182.166c5.749 0 10.417-7.627 10.417-17.022z" fill="#cdd6f4" transform="matrix(1.59606 0 0 .976744 414.466 533.07)"/><path d="m448 149.022c0-9.395-6.905-17.022-15.411-17.022h-172.178c-8.506 0-15.411 7.627-15.411 17.022v8.956c0 9.395 6.905 17.022 15.411 17.022h172.178c8.506 0 15.411-7.627 15.411-17.022z" fill="#f5e0dc" transform="matrix(1.07882 0 0 .976744 443.69 186.07)"/><path d="m448 149.022c0-9.395-4.668-17.022-10.417-17.022h-182.166c-5.749 0-10.417 7.627-10.417 17.022v8.956c0 9.395 4.668 17.022 10.417 17.022h182.166c5.749 0 10.417-7.627 10.417-17.022z" fill="#cdd6f4" transform="matrix(1.59606 0 0 .976744 304.966 255.07)"/><path d="m448 149.022c0-9.395-3.707-17.022-8.272-17.022h-186.456c-4.565 0-8.272 7.627-8.272 17.022v8.956c0 9.395 3.707 17.022 8.272 17.022h186.456c4.565 0 8.272-7.627 8.272-17.022z" fill="#a6adc8" transform="matrix(2.00985 0 0 .976744 131.086 325.57)"/><path d="m448 149.022c0-9.395-12.002-17.022-26.786-17.022h-149.428c-14.784 0-26.786 7.627-26.786 17.022v8.956c0 9.395 12.002 17.022 26.786 17.022h149.428c14.784 0 26.786-7.627 26.786-17.022z" fill="#89dceb" transform="matrix(.62069 0 0 .976744 36.931 120.07)"/><path d="m448 149.022c0-9.395-4.448-17.022-9.927-17.022h-183.146c-5.479 0-9.927 7.627-9.927 17.022v8.956c0 9.395 4.448 17.022 9.927 17.022h183.146c5.479 0 9.927-7.627 9.927-17.022z" fill="#74c7ec" transform="matrix(1.67488 0 0 .976744 289.155 463.07)"/><path d="m448 149.022c0-9.395-6.969-17.022-15.553-17.022h-171.894c-8.584 0-15.553 7.627-15.553 17.022v8.956c0 9.395 6.969 17.022 15.553 17.022h171.894c8.584 0 15.553-7.627 15.553-17.022z" fill="#eba0ac" transform="matrix(1.06897 0 0 .976744 -69.8966 468.07)"/><path d="m448 149.022c0-9.395-12.196-17.022-27.218-17.022h-148.564c-15.022 0-27.218 7.627-27.218 17.022v8.956c0 9.395 12.196 17.022 27.218 17.022h148.564c15.022 0 27.218-7.627 27.218-17.022z" fill="#89b4fa" transform="matrix(.610837 0 0 .976744 97.3448 236.07)"/><path d="m448 149.022c0-9.395-11.371-17.022-25.376-17.022h-152.248c-14.005 0-25.376 7.627-25.376 17.022v8.956c0 9.395 11.371 17.022 25.376 17.022h152.248c14.005 0 25.376-7.627 25.376-17.022z" fill="#cba6f7" transform="matrix(.655172 0 0 .976744 140.483 294.07)"/><path d="m448 149.022c0-9.395-7.45-17.022-16.626-17.022h-169.748c-9.176 0-16.626 7.627-16.626 17.022v8.956c0 9.395 7.45 17.022 16.626 17.022h169.748c9.176 0 16.626-7.627 16.626-17.022z" fill="#f2cdcd" transform="matrix(1 0 0 .976744 -53 352.07)"/></g></svg>