<?xml version="1.0" encoding="UTF-8" standalone="no"?>
<!DOCTYPE svg PUBLIC "-//W3C//DTD SVG 1.1//EN" "http://www.w3.org/Graphics/SVG/1.1/DTD/svg11.dtd">
<svg width="100%" height="100%" viewBox="0 0 64 64" version="1.1" xmlns="http://www.w3.org/2000/svg" xmlns:xlink="http://www.w3.org/1999/xlink" xml:space="preserve" xmlns:serif="http://www.serif.com/" style="fill-rule:evenodd;clip-rule:evenodd;stroke-linejoin:round;stroke-miterlimit:2;">
    <g id="icons_latte">
        <g id="background" transform="matrix(2.88315,0,0,3.85264,-30.3444,-55.1209)">
            <ellipse cx="21.624" cy="22.613" rx="11.099" ry="8.306" style="fill:rgb(220,224,232);"/>
        </g>
        <g id="github" transform="matrix(2.07452,0,0,2.00422,-0.180363,-0.105643)">
            <path d="M13.257,21.063C13.315,20.701 13.482,20.068 13.969,19.582C13.969,19.582 8.559,19.555 8.559,13.844C8.559,11.834 9.749,10.664 9.749,10.664C9.749,10.664 9.254,8.887 9.884,7.556C9.884,7.556 11.152,7.212 13.169,8.777C13.169,8.777 14.536,8.306 16.12,8.34C17.705,8.306 19.071,8.777 19.071,8.777C21.089,7.212 22.357,7.556 22.357,7.556C22.986,8.887 22.492,10.664 22.492,10.664C22.492,10.664 23.682,11.834 23.682,13.844C23.682,19.555 18.272,19.582 18.272,19.582C18.994,20.304 19.013,21.349 19.013,21.349L19.013,25.121C19.013,25.502 18.623,25.512 18.623,25.512L13.618,25.512C13.618,25.512 13.227,25.502 13.227,25.121L13.227,22.891C12.905,22.989 12.438,23.098 11.952,23.098C9.185,23.098 9.262,20.885 8.481,20.244C7.956,19.814 7.343,19.355 7.343,19.196C7.343,19.117 7.305,18.932 7.853,18.932C9.707,18.932 9.59,21.447 11.876,21.447C12.321,21.447 12.939,21.203 13.257,21.063Z" style="fill:rgb(76,79,105);"/>
        </g>
    </g>
</svg>
