<?xml version="1.0" encoding="UTF-8" standalone="no"?>
<!DOCTYPE svg PUBLIC "-//W3C//DTD SVG 1.1//EN" "http://www.w3.org/Graphics/SVG/1.1/DTD/svg11.dtd">
<svg width="100%" height="100%" viewBox="0 0 64 64" version="1.1" xmlns="http://www.w3.org/2000/svg" xmlns:xlink="http://www.w3.org/1999/xlink" xml:space="preserve" xmlns:serif="http://www.serif.com/" style="fill-rule:evenodd;clip-rule:evenodd;stroke-linejoin:round;stroke-miterlimit:2;">
    <g id="icons_latte">
        <g id="background" transform="matrix(2.88315,0,0,3.85264,-30.3444,-55.1209)">
            <ellipse cx="21.624" cy="22.613" rx="11.099" ry="8.306" style="fill:rgb(220,224,232);"/>
        </g>
        <g id="discord" transform="matrix(0.891251,0,0,0.891251,-3.4353,14.0286)">
            <path d="M55.738,4.498C55.725,4.474 55.704,4.454 55.678,4.444C52.7,3.077 49.557,2.103 46.328,1.545C46.268,1.533 46.207,1.562 46.178,1.616C45.75,2.393 45.361,3.19 45.014,4.006C41.533,3.478 37.992,3.478 34.512,4.006C34.162,3.188 33.767,2.39 33.329,1.616C33.298,1.563 33.239,1.535 33.179,1.545C29.949,2.101 26.806,3.076 23.828,4.444C23.803,4.454 23.781,4.473 23.767,4.496C17.811,13.39 16.18,22.065 16.98,30.632C16.985,30.675 17.006,30.714 17.04,30.74C20.508,33.308 24.386,35.267 28.511,36.536C28.57,36.554 28.634,36.533 28.672,36.483C29.558,35.278 30.343,34.002 31.018,32.667C31.058,32.59 31.021,32.495 30.939,32.465C29.701,31.992 28.503,31.421 27.355,30.758C27.265,30.705 27.258,30.577 27.341,30.514C27.582,30.333 27.823,30.146 28.053,29.956C28.094,29.922 28.152,29.914 28.201,29.936C35.719,33.367 43.858,33.367 51.287,29.936C51.336,29.913 51.395,29.92 51.437,29.954C51.667,30.144 51.908,30.333 52.151,30.514C52.235,30.576 52.228,30.704 52.138,30.758C50.993,31.426 49.794,31.997 48.553,32.463C48.471,32.494 48.435,32.59 48.475,32.667C49.162,33.994 49.946,35.269 50.82,36.481C50.856,36.532 50.921,36.554 50.981,36.536C55.112,35.271 58.998,33.311 62.47,30.74C62.504,30.715 62.526,30.676 62.53,30.634C63.488,20.729 60.926,12.126 55.738,4.498L55.738,4.498ZM32.141,25.416C29.878,25.416 28.013,23.339 28.013,20.788C28.013,18.237 29.842,16.16 32.141,16.16C34.459,16.16 36.306,18.255 36.27,20.788C36.27,23.339 34.441,25.416 32.141,25.416ZM47.405,25.416C45.142,25.416 43.277,23.339 43.277,20.788C43.277,18.237 45.106,16.16 47.405,16.16C49.723,16.16 51.57,18.255 51.534,20.788C51.534,23.339 49.723,25.416 47.405,25.416Z" style="fill:rgb(76,79,105);fill-rule:nonzero;"/>
        </g>
    </g>
</svg>
