<?xml version="1.0" encoding="UTF-8" standalone="no"?>
<!DOCTYPE svg PUBLIC "-//W3C//DTD SVG 1.1//EN" "http://www.w3.org/Graphics/SVG/1.1/DTD/svg11.dtd">
<svg width="100%" height="100%" viewBox="0 0 64 64" version="1.1" xmlns="http://www.w3.org/2000/svg" xmlns:xlink="http://www.w3.org/1999/xlink" xml:space="preserve" xmlns:serif="http://www.serif.com/" style="fill-rule:evenodd;clip-rule:evenodd;stroke-linejoin:round;stroke-miterlimit:2;">
    <g id="icons_latte">
        <g id="background" transform="matrix(2.88315,0,0,3.85264,-30.3444,-55.1209)">
            <ellipse cx="21.624" cy="22.613" rx="11.099" ry="8.306" style="fill:rgb(220,224,232);"/>
        </g>
        <g id="reddit" transform="matrix(1,0,0,1,-2.75904,11.9576)">
            <path d="M49.158,14.941C47.986,14.941 46.954,15.425 46.197,16.183C43.408,14.253 39.65,13.011 35.486,12.878L37.65,3.128L44.54,4.675C44.54,6.363 45.915,7.738 47.603,7.738C49.322,7.738 50.704,6.324 50.704,4.636C50.704,2.949 49.329,1.535 47.603,1.535C46.4,1.535 45.361,2.261 44.845,3.253L37.236,1.566C36.853,1.464 36.478,1.738 36.376,2.12L34.001,12.87C29.868,13.042 26.15,14.285 23.353,16.214C22.595,15.425 21.525,14.941 20.353,14.941C16.009,14.941 14.587,20.769 18.564,22.761C18.423,23.378 18.361,24.035 18.361,24.691C18.361,31.238 25.736,36.542 34.79,36.542C43.884,36.542 51.259,31.238 51.259,24.691C51.259,24.035 51.189,23.347 51.017,22.73C54.915,20.73 53.478,14.941 49.158,14.941L49.158,14.941ZM24.868,23.175C24.868,21.456 26.243,20.074 27.97,20.074C29.658,20.074 31.033,21.449 31.033,23.175C31.033,24.863 29.658,26.238 27.97,26.238C26.251,26.245 24.868,24.863 24.868,23.175ZM41.611,30.48C38.767,33.324 30.743,33.324 27.9,30.48C27.587,30.206 27.587,29.722 27.9,29.41C28.173,29.136 28.658,29.136 28.931,29.41C31.103,31.636 38.306,31.675 40.572,29.41C40.845,29.136 41.329,29.136 41.603,29.41C41.923,29.722 41.923,30.206 41.611,30.48L41.611,30.48ZM41.548,26.245C39.861,26.245 38.486,24.87 38.486,23.183C38.486,21.464 39.861,20.081 41.548,20.081C43.267,20.081 44.65,21.456 44.65,23.183C44.642,24.863 43.267,26.245 41.548,26.245Z" style="fill:rgb(76,79,105);fill-rule:nonzero;"/>
        </g>
    </g>
</svg>
