<?xml version="1.0" encoding="UTF-8" standalone="no"?>
<!DOCTYPE svg PUBLIC "-//W3C//DTD SVG 1.1//EN" "http://www.w3.org/Graphics/SVG/1.1/DTD/svg11.dtd">
<svg width="100%" height="100%" viewBox="0 0 64 64" version="1.1" xmlns="http://www.w3.org/2000/svg" xmlns:xlink="http://www.w3.org/1999/xlink" xml:space="preserve" xmlns:serif="http://www.serif.com/" style="fill-rule:evenodd;clip-rule:evenodd;stroke-linejoin:round;stroke-miterlimit:2;">
    <g id="icons_latte">
        <g id="background" transform="matrix(2.88315,0,0,3.85264,-30.3444,-55.1209)">
            <ellipse cx="21.624" cy="22.613" rx="11.099" ry="8.306" style="fill:rgb(220,224,232);"/>
        </g>
        <g id="twitter" transform="matrix(0.953638,0,0,0.953638,-0.14754,14.8405)">
            <path d="M50.647,10.895C50.673,11.25 50.673,11.606 50.673,11.961C50.673,22.799 42.424,35.286 27.348,35.286C22.703,35.286 18.389,33.941 14.759,31.606C15.419,31.682 16.053,31.707 16.739,31.707C20.571,31.707 24.099,30.413 26.916,28.205C23.312,28.129 20.292,25.768 19.251,22.52C19.759,22.596 20.267,22.646 20.8,22.646C21.536,22.646 22.272,22.545 22.957,22.367C19.201,21.606 16.383,18.306 16.383,14.322L16.383,14.22C17.475,14.829 18.744,15.21 20.089,15.261C17.881,13.788 16.434,11.276 16.434,8.433C16.434,6.91 16.84,5.514 17.551,4.296C21.586,9.271 27.652,12.519 34.454,12.875C34.328,12.266 34.251,11.631 34.251,10.997C34.251,6.479 37.906,2.799 42.449,2.799C44.81,2.799 46.942,3.789 48.439,5.388C50.292,5.032 52.069,4.347 53.642,3.408C53.033,5.311 51.739,6.91 50.038,7.926C51.688,7.748 53.287,7.291 54.759,6.657C53.642,8.281 52.246,9.728 50.647,10.895L50.647,10.895Z" style="fill:rgb(76,79,105);fill-rule:nonzero;"/>
        </g>
    </g>
</svg>
