<svg clip-rule="evenodd" fill-rule="evenodd" stroke-linejoin="round" stroke-miterlimit="2" viewBox="0 0 64 64" xmlns="http://www.w3.org/2000/svg"><ellipse cx="21.624" cy="22.613" fill="#181926" rx="11.099" ry="8.306" transform="matrix(2.88315 0 0 3.85264 -30.3444 -55.1209)"/><path d="m49.158 14.941c-1.172 0-2.204.484-2.961 1.242-2.789-1.93-6.547-3.172-10.711-3.305l2.164-9.75 6.89 1.547c0 1.688 1.375 3.063 3.063 3.063 1.719 0 3.101-1.414 3.101-3.102 0-1.687-1.375-3.101-3.101-3.101-1.203 0-2.242.726-2.758 1.718l-7.609-1.687c-.383-.102-.758.172-.86.554l-2.375 10.75c-4.133.172-7.851 1.415-10.648 3.344-.758-.789-1.828-1.273-3-1.273-4.344 0-5.766 5.828-1.789 7.82-.141.617-.203 1.274-.203 1.93 0 6.547 7.375 11.851 16.429 11.851 9.094 0 16.469-5.304 16.469-11.851 0-.656-.07-1.344-.242-1.961 3.898-2 2.461-7.789-1.859-7.789zm-24.29 8.234c0-1.719 1.375-3.101 3.102-3.101 1.688 0 3.063 1.375 3.063 3.101 0 1.688-1.375 3.063-3.063 3.063-1.719.007-3.102-1.375-3.102-3.063zm16.743 7.305c-2.844 2.844-10.868 2.844-13.711 0-.313-.274-.313-.758 0-1.07.273-.274.758-.274 1.031 0 2.172 2.226 9.375 2.265 11.641 0 .273-.274.757-.274 1.031 0 .32.312.32.796.008 1.07zm-.063-4.235c-1.687 0-3.062-1.375-3.062-3.062 0-1.719 1.375-3.102 3.062-3.102 1.719 0 3.102 1.375 3.102 3.102-.008 1.68-1.383 3.062-3.102 3.062z" fill="#cad3f5" fill-rule="nonzero" transform="translate(-2.75904 11.9576)"/></svg>