<svg clip-rule="evenodd" fill-rule="evenodd" stroke-linejoin="round" stroke-miterlimit="2" viewBox="0 0 64 64" xmlns="http://www.w3.org/2000/svg"><ellipse cx="21.624" cy="22.613" fill="#181926" rx="11.099" ry="8.306" transform="matrix(2.88315 0 0 3.85264 -30.3444 -55.1209)"/><path d="m29.534 35.698h2.545v.007h2.457v-10h-1.47v-.005h-4.995v.005h-3.537v12.466h5zm20.719-9.993v-.005h-9.52v.005h-3.696v10h5v-7.548h2.526v7.548h2.457v-7.548h2.49v7.548h2.457v-10zm-29.41 0v-.005h-5.007v.005h-3.843v10h5v-7.548h2.58v7.548h2.457v-10zm11.236 7.536v-5.09h-2.545v5.09z" fill="#cad3f5" transform="matrix(1.12573 0 0 1.12573 -4.00035 -2.95049)"/></svg>