<svg clip-rule="evenodd" fill-rule="evenodd" stroke-linejoin="round" stroke-miterlimit="2" viewBox="0 0 64 64" xmlns="http://www.w3.org/2000/svg"><ellipse cx="21.624" cy="22.613" fill="#181926" rx="11.099" ry="8.306" transform="matrix(2.88315 0 0 3.85264 -30.3444 -55.1209)"/><path d="m50.647 10.895c.026.355.026.711.026 1.066 0 10.838-8.249 23.325-23.325 23.325-4.645 0-8.959-1.345-12.589-3.68.66.076 1.294.101 1.98.101 3.832 0 7.36-1.294 10.177-3.502-3.604-.076-6.624-2.437-7.665-5.685.508.076 1.016.126 1.549.126.736 0 1.472-.101 2.157-.279-3.756-.761-6.574-4.061-6.574-8.045v-.102c1.092.609 2.361.99 3.706 1.041-2.208-1.473-3.655-3.985-3.655-6.828 0-1.523.406-2.919 1.117-4.137 4.035 4.975 10.101 8.223 16.903 8.579-.126-.609-.203-1.244-.203-1.878 0-4.518 3.655-8.198 8.198-8.198 2.361 0 4.493.99 5.99 2.589 1.853-.356 3.63-1.041 5.203-1.98-.609 1.903-1.903 3.502-3.604 4.518 1.65-.178 3.249-.635 4.721-1.269-1.117 1.624-2.513 3.071-4.112 4.238z" fill="#cad3f5" fill-rule="nonzero" transform="matrix(.953638 0 0 .953638 -.14754 14.8405)"/></svg>