<svg clip-rule="evenodd" fill-rule="evenodd" stroke-linejoin="round" stroke-miterlimit="2" viewBox="0 0 64 64" xmlns="http://www.w3.org/2000/svg"><ellipse cx="21.624" cy="22.613" fill="#181926" rx="11.099" ry="8.306" transform="matrix(2.88315 0 0 3.85264 -30.3444 -55.1209)"/><path d="m55.738 4.498c-.013-.024-.034-.044-.06-.054-2.978-1.367-6.121-2.341-9.35-2.899-.06-.012-.121.017-.15.071-.428.777-.817 1.574-1.164 2.39-3.481-.528-7.022-.528-10.502 0-.35-.818-.745-1.616-1.183-2.39-.031-.053-.09-.081-.15-.071-3.23.556-6.373 1.531-9.351 2.899-.025.01-.047.029-.061.052-5.956 8.894-7.587 17.569-6.787 26.136.005.043.026.082.06.108 3.468 2.568 7.346 4.527 11.471 5.796.059.018.123-.003.161-.053.886-1.205 1.671-2.481 2.346-3.816.04-.077.003-.172-.079-.202-1.238-.473-2.436-1.044-3.584-1.707-.09-.053-.097-.181-.014-.244.241-.181.482-.368.712-.558.041-.034.099-.042.148-.02 7.518 3.431 15.657 3.431 23.086 0 .049-.023.108-.016.15.018.23.19.471.379.714.56.084.062.077.19-.013.244-1.145.668-2.344 1.239-3.585 1.705-.082.031-.118.127-.078.204.687 1.327 1.471 2.602 2.345 3.814.036.051.101.073.161.055 4.131-1.265 8.017-3.225 11.489-5.796.034-.025.056-.064.06-.106.958-9.905-1.604-18.508-6.792-26.136zm-23.597 20.918c-2.263 0-4.128-2.077-4.128-4.628s1.829-4.628 4.128-4.628c2.318 0 4.165 2.095 4.129 4.628 0 2.551-1.829 4.628-4.129 4.628zm15.264 0c-2.263 0-4.128-2.077-4.128-4.628s1.829-4.628 4.128-4.628c2.318 0 4.165 2.095 4.129 4.628 0 2.551-1.811 4.628-4.129 4.628z" fill="#cad3f5" fill-rule="nonzero" transform="matrix(.891251 0 0 .891251 -3.4353 14.0286)"/></svg>