<svg clip-rule="evenodd" fill-rule="evenodd" stroke-linejoin="round" stroke-miterlimit="2" viewBox="0 0 64 64" xmlns="http://www.w3.org/2000/svg"><ellipse cx="21.624" cy="22.613" fill="#181926" rx="11.099" ry="8.306" transform="matrix(2.88315 0 0 3.85264 -30.3444 -55.1209)"/><path d="m13.257 21.063c.058-.362.225-.995.712-1.481 0 0-5.41-.027-5.41-5.738 0-2.01 1.19-3.18 1.19-3.18s-.495-1.777.135-3.108c0 0 1.268-.344 3.285 1.221 0 0 1.367-.471 2.951-.437 1.585-.034 2.951.437 2.951.437 2.018-1.565 3.286-1.221 3.286-1.221.629 1.331.135 3.108.135 3.108s1.19 1.17 1.19 3.18c0 5.711-5.41 5.738-5.41 5.738.722.722.741 1.767.741 1.767v3.772c0 .381-.39.391-.39.391h-5.005s-.391-.01-.391-.391v-2.23c-.322.098-.789.207-1.275.207-2.767 0-2.69-2.213-3.471-2.854-.525-.43-1.138-.889-1.138-1.048 0-.079-.038-.264.51-.264 1.854 0 1.737 2.515 4.023 2.515.445 0 1.063-.244 1.381-.384z" fill="#cad3f5" transform="matrix(2.07452 0 0 2.00422 -.180363 -.105643)"/></svg>