<svg clip-rule="evenodd" fill-rule="evenodd" stroke-linejoin="round" stroke-miterlimit="2" viewBox="0 0 64 64" xmlns="http://www.w3.org/2000/svg"><ellipse cx="21.624" cy="22.613" fill="#181926" rx="11.099" ry="8.306" transform="matrix(2.88315 0 0 3.85264 -30.3444 -55.1209)"/><path d="m23.268 5.313c-.35-2.578-2.617-4.61-5.304-5.004-.454-.067-2.172-.309-6.151-.309h-.03c-3.98 0-4.835.242-5.288.309-2.613.383-4.999 2.209-5.578 4.818-.277 1.285-.307 2.71-.256 4.016.074 1.874.088 3.745.26 5.611.118 1.24.325 2.47.62 3.68.55 2.237 2.777 4.098 4.96 4.857 2.336.792 4.849.923 7.256.38.265-.061.527-.132.786-.213.585-.184 1.27-.39 1.774-.753.014-.01.022-.026.023-.043v-1.809c0-.016-.007-.031-.02-.041s-.03-.014-.046-.01c-1.543.365-3.123.548-4.709.545-2.73 0-3.463-1.284-3.674-1.818-.169-.462-.276-.943-.319-1.433v-.003c0-.029.024-.053.053-.053.004 0 .009.001.013.002 1.517.363 3.072.546 4.632.546.376 0 .75 0 1.125-.01 1.57-.044 3.224-.124 4.768-.422.038-.008.077-.015.11-.024 2.435-.464 4.753-1.92 4.989-5.604.008-.145.03-1.52.03-1.67.002-.512.167-3.63-.024-5.545zm-3.748 9.195h-2.561v-6.218c0-1.309-.55-1.976-1.67-1.976-1.23 0-1.846.79-1.846 2.35v3.403h-2.546v-3.404c0-1.56-.617-2.35-1.848-2.35-1.112 0-1.668.668-1.67 1.977v6.218h-2.557v-6.406c0-1.31.337-2.35 1.011-3.12.696-.77 1.608-1.164 2.74-1.164 1.311 0 2.302.5 2.962 1.498l.638 1.06.638-1.06c.66-.999 1.65-1.498 2.96-1.498 1.13 0 2.043.395 2.74 1.164.675.77 1.012 1.81 1.012 3.12z" fill="#cad3f5" fill-rule="nonzero" transform="matrix(1.41667 0 0 1.41667 14.9995 15)"/></svg>