<svg xmlns="http://www.w3.org/2000/svg" x="0px" y="0px" width="300" height="300" viewBox="0,0,256,256"
style="fill:#000000;">
<g transform="translate(38.4,38.4) scale(0.7,0.7)"><g fill="#181926" fill-rule="nonzero" stroke="none" stroke-width="1" stroke-linecap="butt" stroke-linejoin="miter" stroke-miterlimit="10" stroke-dasharray="" stroke-dashoffset="0" font-family="none" font-weight="none" font-size="none" text-anchor="none" style="mix-blend-mode: normal"><path d="M128,310.85714c-100.98921,0 -182.85714,-81.86793 -182.85714,-182.85714v0c0,-100.98921 81.86793,-182.85714 182.85714,-182.85714v0c100.98921,0 182.85714,81.86793 182.85714,182.85714v0c0,100.98921 -81.86793,182.85714 -182.85714,182.85714z" id="shape"></path></g><g fill="#cad3f5" fill-rule="nonzero" stroke="none" stroke-width="1" stroke-linecap="butt" stroke-linejoin="miter" stroke-miterlimit="10" stroke-dasharray="" stroke-dashoffset="0" font-family="none" font-weight="none" font-size="none" text-anchor="none" style="mix-blend-mode: normal"><g transform="scale(5.12,5.12)"><path d="M5.91992,6l14.66211,21.375l-14.35156,16.625h3.17969l12.57617,-14.57812l10,14.57813h12.01367l-15.31836,-22.33008l13.51758,-15.66992h-3.16992l-11.75391,13.61719l-9.3418,-13.61719zM9.7168,8h7.16406l23.32227,34h-7.16406z"></path></g></g></g>
</svg>
