<?xml version="1.0" encoding="UTF-8" standalone="no"?>
<svg
   viewBox="0 0 888 100"
   version="1.1"
   id="svg16"
   sodipodi:docname="ctp-repository-footer-separator.svg"
   inkscape:version="1.1.1 (3bf5ae0d25, 2021-09-20, custom)"
   xmlns:inkscape="http://www.inkscape.org/namespaces/inkscape"
   xmlns:sodipodi="http://sodipodi.sourceforge.net/DTD/sodipodi-0.dtd"
   xmlns="http://www.w3.org/2000/svg"
   xmlns:svg="http://www.w3.org/2000/svg">
  <defs
     id="defs20" />
  <sodipodi:namedview
     id="namedview18"
     pagecolor="#ffffff"
     bordercolor="#666666"
     borderopacity="1.0"
     inkscape:pageshadow="2"
     inkscape:pageopacity="0.0"
     inkscape:pagecheckerboard="0"
     showgrid="false"
     showguides="true"
     inkscape:guide-bbox="true"
     inkscape:zoom="1"
     inkscape:cx="400.5"
     inkscape:cy="73.5"
     inkscape:window-width="1920"
     inkscape:window-height="1080"
     inkscape:window-x="0"
     inkscape:window-y="0"
     inkscape:window-maximized="1"
     inkscape:current-layer="layer1" />
  <g
     inkscape:groupmode="layer"
     id="layer2"
     inkscape:label="rice-paper"
     style="display:none;opacity:0.68178">
    <path
       fill="#3b4252"
       d="m 887.94089,87.850252 c 0,-0.821 -0.68,-1.486001 -1.5,-1.486001 h -663.807 l -3.359,-6.903999 a 1.52,1.52 0 0 0 -0.994,-0.796 l -4.756,-1.124 -3.511,-7.723 a 1.466,1.466 0 0 0 -0.52,-0.615 l -8.828,-5.977 a 1.517,1.517 0 0 0 -1.598,-0.043 l -11.657,7.005001 -10.659,0.937 a 1.487,1.487 0 0 0 -0.964,0.476999 l -5.398,5.880001 -8.117,1.964 a 1.488,1.488 0 0 0 -0.921,0.676 l -3.777,6.244 H 1.4408902 c -0.82100004,0 -1.50000004,0.664999 -1.50000004,1.485999 0,0.820001 0.679,1.485 1.50000004,1.485 H 156.82589 l -1.131,16.935998 c -0.034,0.508 0.194,0.997 0.605,1.298 l 12.075,8.83501 3.24,14.729 c 0.076,0.346 0.273,0.652 0.555,0.865 l 14.138,10.694 a 0.02,0.02 0 0 0 0.006,0.004 c 0.613,0.454 1.561,0.343 2.043,-0.253 l 6.944,-8.555 c 0.152,-0.188 0.256,-0.409 0.303,-0.646 l 1.648,-8.24401 10.115,-2.52099 a 1.49,1.49 0 0 0 0.964,-0.766 l 5.249,-10.27201 6.614,-3.447 c 0.437,-0.228 0.732,-0.656 0.789,-1.146 l 2.042,-17.512999 h 663.416 c 0.82,0.001 1.5,-0.664 1.5,-1.483999 z m -695.776,-1.487001 1.994,-2.41 6.682,-1.126999 c 0.343,-0.058 0.655,-0.234001 0.881,-0.498001 l 3.226,-3.763999 9.448,2.232999 -7.858,5.565 h -14.373 z m 25.204,-4.029 1.96,4.029 h -7.65 z m -7.501,-5.659999 -5.118,-1.209001 a 1.486,1.486 0 0 0 -1.47,0.479 l -3.464,4.043001 -6.697,1.129999 c -0.352,0.06 -0.67,0.243001 -0.897,0.518001 l -3.914,4.728999 h -10.927 l 4.173,-6.146 11.588,-1.838999 a 1.485,1.485 0 0 0 1.065,-0.746 l 6.138,-11.037001 7.137,4.832001 z m -46.293,5.512 7.954,-1.925 c 0.286,-0.07 0.546,-0.223 0.745,-0.439 l 5.314,-5.789 10.425,-0.916 c 0.225,-0.021 0.442,-0.092 0.635,-0.207 l 7.185,-4.317001 -3.873,6.964 -11.508,1.827 a 1.482,1.482 0 0 0 -0.996,0.633001 l -5.669,8.346999 h -12.739 z m 7.581,33.031008 a 1.484,1.484 0 0 0 -0.574,-0.88 l -11.868,-8.68401 1.089,-16.317998 h 12.836 l -3.147,11.761998 a 1.483,1.483 0 0 0 0.446,1.492 l 8.059,7.196 v 9.11201 c 0,0.303 0.093,0.6 0.267,0.849 l 5.751,8.25499 1.277,10.197 -10.893,-8.239 z m 40.632,-6.19301 a 1.486,1.486 0 0 0 -0.636,0.641 l -5.157,10.09301 -10.372,2.586 c -0.557,0.14 -0.985,0.587 -1.097,1.15 l -1.762,8.80699 -4.518,5.566 -1.328,-10.6 a 1.497,1.497 0 0 0 -0.255,-0.665 l -5.695,-8.17199 v -9.31201 c 0,-0.423 -0.181,-0.826 -0.496,-1.108 l -7.874,-7.029 3.116,-11.645998 h 44.32 l -1.911,16.386998 z"
       id="path14" />
  </g>
  <g
     id="g21079"
     style="clip-rule:evenodd;fill-rule:evenodd;stroke-linecap:round;stroke-linejoin:round;stroke-miterlimit:1.5"
     transform="matrix(0.08790591,0,0,0.08790591,-1628.0952,-1016.0857)">
    <g
       id="g21060">
      <g
         id="g21042">
        <g
           id="g21025">
          <g
             id="g21009">
            <g
               id="g20994">
              <path
                 d="m 20292.731,12289.382 c 20.315,-401.859 88.596,-653.448 144.009,-653.448 28.944,0 85.82,79.229 103.903,166.019 50.505,-5.535 106.999,-9.594 164.088,-9.594 57.089,0 113.583,4.059 164.088,9.594 18.083,-86.79 74.959,-166.019 103.903,-166.019 55.413,0 123.694,251.589 144.009,653.448 v 65.956 c 0,102.263 -83.024,185.287 -185.287,185.287 h -453.426 c -102.263,0 -185.287,-83.024 -185.287,-185.287 z"
                 style="clip-rule:evenodd;fill:#323232;fill-opacity:1;fill-rule:evenodd;stroke-linecap:round;stroke-linejoin:round;stroke-miterlimit:1.5"
                 id="path5201-8-8-2-6-7-9" />
              <path
                 d="m 20618.774,11921.988 c 39.527,29.402 44.522,89.698 11.148,134.565 -33.374,44.866 -92.56,57.422 -132.087,28.02 -39.527,-29.402 -44.522,-89.699 -11.148,-134.566 33.374,-44.866 92.56,-57.421 132.087,-28.019 z"
                 style="clip-rule:evenodd;fill:#e6e6e6;fill-opacity:1;fill-rule:evenodd;stroke-linecap:round;stroke-linejoin:round;stroke-miterlimit:1.5"
                 id="path5231-4-1-1-2-4-8" />
              <circle
                 cx="20574.172"
                 cy="11997.178"
                 r="60"
                 id="circle5235-4-4-0-7-2-4"
                 style="clip-rule:evenodd;fill:#333333;fill-opacity:1;fill-rule:evenodd;stroke-linecap:round;stroke-linejoin:round;stroke-miterlimit:1.5" />
              <path
                 d="m 20786.072,11921.988 c -39.527,29.402 -44.522,89.698 -11.148,134.565 33.374,44.866 92.56,57.422 132.087,28.02 39.527,-29.402 44.522,-89.699 11.148,-134.566 -33.374,-44.866 -92.56,-57.421 -132.087,-28.019 z"
                 style="clip-rule:evenodd;fill:#e6e6e6;fill-opacity:1;fill-rule:evenodd;stroke-linecap:round;stroke-linejoin:round;stroke-miterlimit:1.5"
                 id="path5241-7-2-6-9-4-8" />
              <circle
                 cx="20830.672"
                 cy="11997.178"
                 r="60"
                 id="circle5245-3-7-7-2-4-10"
                 style="clip-rule:evenodd;fill:#333333;fill-opacity:1;fill-rule:evenodd;stroke-linecap:round;stroke-linejoin:round;stroke-miterlimit:1.5" />
              <path
                 d="m 20639.943,12075.369 c 0,0 -4.864,27.359 26.707,27.359 41.058,0 35.523,-53.926 35.523,-53.926"
                 style="clip-rule:evenodd;fill:none;fill-rule:evenodd;stroke:#e6e6e6;stroke-width:8px;stroke-linecap:round;stroke-linejoin:round;stroke-miterlimit:1.5;stroke-opacity:1"
                 id="path5253-7-9-0-9-3-3" />
              <path
                 d="m 20764.903,12075.369 c 0,0 4.864,27.359 -26.707,27.359 -41.058,0 -35.523,-53.926 -35.523,-53.926"
                 style="clip-rule:evenodd;fill:none;fill-rule:evenodd;stroke:#e6e6e6;stroke-width:8px;stroke-linecap:round;stroke-linejoin:round;stroke-miterlimit:1.5;stroke-opacity:1"
                 id="path5255-5-9-6-7-0-0" />
              <path
                 d="m 20702.423,12036.487 c 11.315,0 20.501,4.791 20.501,10.693 0,2.865 -11.158,14.307 -20.491,14.307 -7.748,0 -20.511,-11.279 -20.511,-14.307 0,-5.902 9.186,-10.693 20.501,-10.693 z"
                 style="clip-rule:evenodd;fill:#e6e6e6;fill-opacity:1;fill-rule:evenodd;stroke-linecap:round;stroke-linejoin:round;stroke-miterlimit:1.5"
                 id="path5259-9-4-4-3-7-4" />
              <path
                 d="m 20995.15,11827.325 c 0,0 -8.405,-98.886 -34.165,-104.684 -19.026,-4.281 -38.849,82.206 -38.985,82.464 -0.136,0.259 46.043,10.417 73.15,22.22 z"
                 style="clip-rule:evenodd;fill:#e6e6e6;fill-opacity:1;fill-rule:evenodd;stroke-linecap:round;stroke-linejoin:round;stroke-miterlimit:1.5"
                 id="path5261-6-5-7-6-8-4" />
              <path
                 d="m 20407.145,11827.325 c 0,0 8.405,-98.886 34.165,-104.684 19.026,-4.281 38.849,82.206 38.985,82.464 0.136,0.259 -46.043,10.417 -73.15,22.22 z"
                 style="clip-rule:evenodd;fill:#e6e6e6;fill-opacity:1;fill-rule:evenodd;stroke-linecap:round;stroke-linejoin:round;stroke-miterlimit:1.5"
                 id="path5263-2-9-4-1-6-4" />
              <path
                 d="m 20566.942,12355.424 c 1.65,2.145 4.098,3.529 6.787,3.838 2.688,0.308 5.386,-0.486 7.479,-2.202 19.546,-16.024 70.032,-57.413 94.778,-77.701 3.468,-2.842 5.482,-7.087 5.49,-11.571 0.01,-4.484 -1.989,-8.737 -5.446,-11.592 -24.443,-20.196 -74.03,-61.166 -93.345,-77.125 -2.087,-1.723 -4.783,-2.528 -7.472,-2.23 -2.69,0.299 -5.144,1.675 -6.802,3.814 -2.02,2.606 -4.249,5.483 -6.248,8.062 -3.346,4.318 -2.609,10.522 1.657,13.934 21.618,17.295 81.366,65.093 81.366,65.093 0,0 -60.632,48.837 -82.339,66.322 -4.234,3.41 -4.968,9.576 -1.654,13.885 1.845,2.398 3.883,5.047 5.749,7.473 z"
                 style="clip-rule:evenodd;fill:#e6e6e6;fill-opacity:1;fill-rule:nonzero;stroke-linecap:round;stroke-linejoin:round;stroke-miterlimit:1.5"
                 id="path5267-1-3-8-2-8-4" />
              <path
                 d="m 20851.631,12381.4 c 0,-2.652 -1.054,-5.196 -2.929,-7.071 -1.875,-1.875 -4.419,-2.929 -7.071,-2.929 -26.648,0 -99.152,0 -125.8,0 -2.652,0 -5.196,1.054 -7.071,2.929 -1.875,1.875 -2.929,4.419 -2.929,7.071 0,2.285 0,4.715 0,7 0,2.652 1.054,5.196 2.929,7.071 1.875,1.875 4.419,2.929 7.071,2.929 26.648,0 99.152,0 125.8,0 2.652,0 5.196,-1.054 7.071,-2.929 1.875,-1.875 2.929,-4.419 2.929,-7.071 0,-2.285 0,-4.715 0,-7 z"
                 style="clip-rule:evenodd;fill:#e6e6e6;fill-opacity:1;fill-rule:nonzero;stroke-linecap:round;stroke-linejoin:round;stroke-miterlimit:1.5"
                 id="path5269-7-5-5-9-8-76" />
            </g>
          </g>
        </g>
      </g>
    </g>
  </g>
  <g
     inkscape:groupmode="layer"
     id="layer1"
     inkscape:label="base">
    <rect
       style="fill:#323232;stroke:#323232;stroke-width:3.0932;fill-opacity:1;stroke-opacity:1"
       id="rect861"
       width="884.93768"
       height="0.010556848"
       x="1.5099174"
       y="87.846146"
       ry="0.0052784239"
       rx="0.13639021" />
  </g>
</svg>
